<mxfile host="app.diagrams.net" agent="Mozilla/5.0 (Windows NT 10.0; Win64; x64; rv:129.0) Gecko/20100101 Firefox/129.0" version="24.7.7">
  <diagram name="Página-1" id="X8dvN4SWLK6dX2ai3EYz">
    <mxGraphModel dx="1687" dy="864" grid="1" gridSize="10" guides="1" tooltips="1" connect="1" arrows="1" fold="1" page="1" pageScale="1" pageWidth="827" pageHeight="1169" math="0" shadow="0">
      <root>
        <mxCell id="0" />
        <mxCell id="1" parent="0" />
        <mxCell id="s57FpKu87OGDmMK4IIpy-1" value="" style="ellipse;html=1;shape=startState;fillColor=#000000;strokeColor=#ff0000;" vertex="1" parent="1">
          <mxGeometry x="384" y="140" width="30" height="30" as="geometry" />
        </mxCell>
        <mxCell id="s57FpKu87OGDmMK4IIpy-2" value="" style="edgeStyle=orthogonalEdgeStyle;html=1;verticalAlign=bottom;endArrow=open;endSize=8;strokeColor=#ff0000;rounded=0;" edge="1" source="s57FpKu87OGDmMK4IIpy-1" parent="1">
          <mxGeometry relative="1" as="geometry">
            <mxPoint x="399" y="230" as="targetPoint" />
          </mxGeometry>
        </mxCell>
        <mxCell id="s57FpKu87OGDmMK4IIpy-6" value="" style="edgeStyle=orthogonalEdgeStyle;rounded=0;orthogonalLoop=1;jettySize=auto;html=1;" edge="1" parent="1" source="s57FpKu87OGDmMK4IIpy-3" target="s57FpKu87OGDmMK4IIpy-5">
          <mxGeometry relative="1" as="geometry" />
        </mxCell>
        <mxCell id="s57FpKu87OGDmMK4IIpy-3" value="Inserir login" style="html=1;whiteSpace=wrap;" vertex="1" parent="1">
          <mxGeometry x="344" y="230" width="110" height="50" as="geometry" />
        </mxCell>
        <mxCell id="s57FpKu87OGDmMK4IIpy-8" value="" style="edgeStyle=orthogonalEdgeStyle;rounded=0;orthogonalLoop=1;jettySize=auto;html=1;" edge="1" parent="1" source="s57FpKu87OGDmMK4IIpy-5" target="s57FpKu87OGDmMK4IIpy-7">
          <mxGeometry relative="1" as="geometry" />
        </mxCell>
        <mxCell id="s57FpKu87OGDmMK4IIpy-11" value="" style="edgeStyle=orthogonalEdgeStyle;rounded=0;orthogonalLoop=1;jettySize=auto;html=1;" edge="1" parent="1" source="s57FpKu87OGDmMK4IIpy-5" target="s57FpKu87OGDmMK4IIpy-10">
          <mxGeometry relative="1" as="geometry" />
        </mxCell>
        <mxCell id="s57FpKu87OGDmMK4IIpy-5" value="Login e senha corretos?" style="rhombus;whiteSpace=wrap;html=1;" vertex="1" parent="1">
          <mxGeometry x="346" y="340" width="105" height="95" as="geometry" />
        </mxCell>
        <mxCell id="s57FpKu87OGDmMK4IIpy-15" style="edgeStyle=orthogonalEdgeStyle;rounded=0;orthogonalLoop=1;jettySize=auto;html=1;" edge="1" parent="1" source="s57FpKu87OGDmMK4IIpy-7" target="s57FpKu87OGDmMK4IIpy-34">
          <mxGeometry relative="1" as="geometry">
            <Array as="points">
              <mxPoint x="233" y="680" />
            </Array>
          </mxGeometry>
        </mxCell>
        <mxCell id="s57FpKu87OGDmMK4IIpy-7" value="Redirecionar para a Tela principal" style="whiteSpace=wrap;html=1;" vertex="1" parent="1">
          <mxGeometry x="173" y="460" width="120" height="60" as="geometry" />
        </mxCell>
        <mxCell id="s57FpKu87OGDmMK4IIpy-9" value="&lt;div&gt;Se sim&lt;/div&gt;" style="text;html=1;align=center;verticalAlign=middle;resizable=0;points=[];autosize=1;strokeColor=none;fillColor=none;" vertex="1" parent="1">
          <mxGeometry x="294" y="359" width="60" height="30" as="geometry" />
        </mxCell>
        <mxCell id="s57FpKu87OGDmMK4IIpy-20" value="" style="edgeStyle=orthogonalEdgeStyle;rounded=0;orthogonalLoop=1;jettySize=auto;html=1;" edge="1" parent="1" source="s57FpKu87OGDmMK4IIpy-10" target="s57FpKu87OGDmMK4IIpy-19">
          <mxGeometry relative="1" as="geometry" />
        </mxCell>
        <mxCell id="s57FpKu87OGDmMK4IIpy-10" value="Exibir mensagem de erro" style="whiteSpace=wrap;html=1;" vertex="1" parent="1">
          <mxGeometry x="520" y="460" width="120" height="60" as="geometry" />
        </mxCell>
        <mxCell id="s57FpKu87OGDmMK4IIpy-14" value="" style="ellipse;html=1;shape=endState;fillColor=#000000;strokeColor=#ff0000;" vertex="1" parent="1">
          <mxGeometry x="615" y="789" width="30" height="30" as="geometry" />
        </mxCell>
        <mxCell id="s57FpKu87OGDmMK4IIpy-22" value="" style="edgeStyle=orthogonalEdgeStyle;rounded=0;orthogonalLoop=1;jettySize=auto;html=1;" edge="1" parent="1" source="s57FpKu87OGDmMK4IIpy-19" target="s57FpKu87OGDmMK4IIpy-21">
          <mxGeometry relative="1" as="geometry" />
        </mxCell>
        <mxCell id="s57FpKu87OGDmMK4IIpy-25" style="edgeStyle=orthogonalEdgeStyle;rounded=0;orthogonalLoop=1;jettySize=auto;html=1;" edge="1" parent="1" source="s57FpKu87OGDmMK4IIpy-19" target="s57FpKu87OGDmMK4IIpy-28">
          <mxGeometry relative="1" as="geometry">
            <mxPoint x="752.5" y="360" as="targetPoint" />
          </mxGeometry>
        </mxCell>
        <mxCell id="s57FpKu87OGDmMK4IIpy-19" value="Recuperar senha?" style="rhombus;whiteSpace=wrap;html=1;" vertex="1" parent="1">
          <mxGeometry x="700" y="442.5" width="105" height="95" as="geometry" />
        </mxCell>
        <mxCell id="s57FpKu87OGDmMK4IIpy-36" style="edgeStyle=orthogonalEdgeStyle;rounded=0;orthogonalLoop=1;jettySize=auto;html=1;" edge="1" parent="1" source="s57FpKu87OGDmMK4IIpy-21" target="s57FpKu87OGDmMK4IIpy-34">
          <mxGeometry relative="1" as="geometry">
            <Array as="points">
              <mxPoint x="937" y="570" />
              <mxPoint x="630" y="570" />
            </Array>
          </mxGeometry>
        </mxCell>
        <mxCell id="s57FpKu87OGDmMK4IIpy-21" value="Redirecionar para a tela de recuperação" style="whiteSpace=wrap;html=1;" vertex="1" parent="1">
          <mxGeometry x="877.5" y="460" width="120" height="60" as="geometry" />
        </mxCell>
        <mxCell id="s57FpKu87OGDmMK4IIpy-23" value="Se sim" style="text;html=1;align=center;verticalAlign=middle;resizable=0;points=[];autosize=1;strokeColor=none;fillColor=none;" vertex="1" parent="1">
          <mxGeometry x="790" y="460" width="60" height="30" as="geometry" />
        </mxCell>
        <mxCell id="s57FpKu87OGDmMK4IIpy-24" value="Se não" style="text;html=1;align=center;verticalAlign=middle;resizable=0;points=[];autosize=1;strokeColor=none;fillColor=none;" vertex="1" parent="1">
          <mxGeometry x="434" y="360" width="60" height="30" as="geometry" />
        </mxCell>
        <mxCell id="s57FpKu87OGDmMK4IIpy-26" value="Se não" style="text;html=1;align=center;verticalAlign=middle;resizable=0;points=[];autosize=1;strokeColor=none;fillColor=none;rotation=0;" vertex="1" parent="1">
          <mxGeometry x="700" y="412.5" width="60" height="30" as="geometry" />
        </mxCell>
        <mxCell id="s57FpKu87OGDmMK4IIpy-29" style="edgeStyle=orthogonalEdgeStyle;rounded=0;orthogonalLoop=1;jettySize=auto;html=1;" edge="1" parent="1" source="s57FpKu87OGDmMK4IIpy-28" target="s57FpKu87OGDmMK4IIpy-3">
          <mxGeometry relative="1" as="geometry" />
        </mxCell>
        <mxCell id="s57FpKu87OGDmMK4IIpy-32" value="" style="edgeStyle=orthogonalEdgeStyle;rounded=0;orthogonalLoop=1;jettySize=auto;html=1;" edge="1" parent="1" source="s57FpKu87OGDmMK4IIpy-28" target="s57FpKu87OGDmMK4IIpy-31">
          <mxGeometry relative="1" as="geometry" />
        </mxCell>
        <mxCell id="s57FpKu87OGDmMK4IIpy-28" value="Cadastar?" style="rhombus;whiteSpace=wrap;html=1;" vertex="1" parent="1">
          <mxGeometry x="700" y="207.5" width="105" height="95" as="geometry" />
        </mxCell>
        <mxCell id="s57FpKu87OGDmMK4IIpy-30" value="Se não" style="text;html=1;align=center;verticalAlign=middle;resizable=0;points=[];autosize=1;strokeColor=none;fillColor=none;" vertex="1" parent="1">
          <mxGeometry x="650" y="230" width="60" height="30" as="geometry" />
        </mxCell>
        <mxCell id="s57FpKu87OGDmMK4IIpy-35" style="edgeStyle=orthogonalEdgeStyle;rounded=0;orthogonalLoop=1;jettySize=auto;html=1;" edge="1" parent="1" source="s57FpKu87OGDmMK4IIpy-31" target="s57FpKu87OGDmMK4IIpy-34">
          <mxGeometry relative="1" as="geometry">
            <Array as="points">
              <mxPoint x="1080" y="255" />
              <mxPoint x="1080" y="680" />
            </Array>
          </mxGeometry>
        </mxCell>
        <mxCell id="s57FpKu87OGDmMK4IIpy-31" value="Redirecionar para a tela de cadastro" style="whiteSpace=wrap;html=1;" vertex="1" parent="1">
          <mxGeometry x="877.5" y="225" width="120" height="60" as="geometry" />
        </mxCell>
        <mxCell id="s57FpKu87OGDmMK4IIpy-33" value="Se sim" style="text;html=1;align=center;verticalAlign=middle;resizable=0;points=[];autosize=1;strokeColor=none;fillColor=none;" vertex="1" parent="1">
          <mxGeometry x="793" y="231" width="60" height="30" as="geometry" />
        </mxCell>
        <mxCell id="s57FpKu87OGDmMK4IIpy-38" value="" style="edgeStyle=orthogonalEdgeStyle;rounded=0;orthogonalLoop=1;jettySize=auto;html=1;" edge="1" parent="1" source="s57FpKu87OGDmMK4IIpy-34" target="s57FpKu87OGDmMK4IIpy-14">
          <mxGeometry relative="1" as="geometry" />
        </mxCell>
        <mxCell id="s57FpKu87OGDmMK4IIpy-34" value="" style="rhombus;whiteSpace=wrap;html=1;" vertex="1" parent="1">
          <mxGeometry x="590" y="640" width="80" height="80" as="geometry" />
        </mxCell>
      </root>
    </mxGraphModel>
  </diagram>
</mxfile>
